<svg width="209" height="66" viewBox="0 0 209 66" fill="none" xmlns="http://www.w3.org/2000/svg">
<rect x="5" y="2" width="198" height="55" rx="10" fill="#FF6B00"/>
<path d="M5 49H203V54C203 59.5228 198.523 64 193 64H15C9.47715 64 5 59.5228 5 54V49Z" fill="#313131"/>
<g filter="url(#filter0_d)">
<path d="M19.0244 57.52C13.9544 57.52 10.2928 56.2633 8.03943 53.75C5.7861 51.2367 4.65943 47.185 4.65943 41.595V36.135H15.6444V43.09C15.6444 45.8633 16.5328 47.25 18.3094 47.25C19.3061 47.25 19.9994 46.9683 20.3894 46.405C20.7794 45.7983 20.9744 44.8017 20.9744 43.415C20.9744 41.595 20.7578 40.1 20.3244 38.93C19.8911 37.7167 19.3278 36.72 18.6344 35.94C17.9844 35.1167 16.7928 33.86 15.0594 32.17L10.2494 27.36C6.52277 23.72 4.65943 19.69 4.65943 15.27C4.65943 10.5033 5.74277 6.885 7.90943 4.415C10.1194 1.90166 13.3261 0.644997 17.5294 0.644997C22.5561 0.644997 26.1744 1.98833 28.3844 4.675C30.5944 7.31833 31.6994 11.4783 31.6994 17.155H20.3244L20.2594 13.32C20.2594 12.5833 20.0428 11.9983 19.6094 11.565C19.2194 11.1317 18.6561 10.915 17.9194 10.915C17.0528 10.915 16.4028 11.1533 15.9694 11.63C15.5361 12.1067 15.3194 12.7567 15.3194 13.58C15.3194 15.4 16.3594 17.285 18.4394 19.235L24.9394 25.475C26.4561 26.9483 27.7128 28.3567 28.7094 29.7C29.7061 31 30.5078 32.56 31.1144 34.38C31.7211 36.1567 32.0244 38.28 32.0244 40.75C32.0244 46.2533 31.0061 50.435 28.9694 53.295C26.9761 56.1117 23.6611 57.52 19.0244 57.52ZM35.5304 0.839999H47.2304V14.1C48.4437 10.6333 50.762 8.9 54.1854 8.9C57.392 8.9 59.8187 9.91833 61.4654 11.955C63.112 13.9917 63.9354 16.7867 63.9354 20.34V57H52.5604V21.055C52.5604 20.015 52.322 19.17 51.8454 18.52C51.3687 17.87 50.6754 17.545 49.7654 17.545C48.9854 17.545 48.357 17.8917 47.8804 18.585C47.447 19.235 47.2304 20.0367 47.2304 20.99V57H35.5304V0.839999ZM82.1928 57.52C72.7028 57.52 67.9578 52.6017 67.9578 42.765V23.655C67.9578 19.1483 69.2144 15.5733 71.7278 12.93C74.2844 10.2433 77.7728 8.9 82.1928 8.9C86.6128 8.9 90.0794 10.2433 92.5928 12.93C95.1494 15.5733 96.4278 19.1483 96.4278 23.655V42.765C96.4278 52.6017 91.6828 57.52 82.1928 57.52ZM82.1928 48.745C83.1028 48.745 83.7744 48.42 84.2078 47.77C84.6411 47.12 84.8578 46.2317 84.8578 45.105V21.835C84.8578 19.0617 83.9694 17.675 82.1928 17.675C80.4161 17.675 79.5278 19.0617 79.5278 21.835V45.105C79.5278 46.2317 79.7444 47.12 80.1778 47.77C80.6111 48.42 81.2828 48.745 82.1928 48.745ZM109.822 57.52C106.269 57.52 103.821 56.4583 102.477 54.335C101.177 52.2117 100.527 49.0483 100.527 44.845V9.42H111.967V42.57C111.967 42.8733 111.967 43.6967 111.967 45.04C111.967 46.34 112.162 47.2717 112.552 47.835C112.986 48.355 113.636 48.615 114.502 48.615C115.672 48.615 116.409 48.1383 116.712 47.185C117.016 46.1883 117.167 44.78 117.167 42.96V42.57L117.232 9.42H128.542V57H117.167V51.93C116.387 53.9233 115.477 55.3533 114.437 56.22C113.397 57.0867 111.859 57.52 109.822 57.52ZM142.909 57.52C139.919 57.52 137.861 56.8917 136.734 55.635C135.607 54.3783 135.044 52.3633 135.044 49.59V19.885H131.859V11.24H135.044V1.165H146.094V11.24H149.344V19.885H146.094V46.6C146.094 47.4233 146.159 48.03 146.289 48.42C146.419 48.81 146.766 49.005 147.329 49.005C147.762 49.005 148.174 48.9833 148.564 48.94C148.954 48.8967 149.214 48.875 149.344 48.875V56.675C148.694 56.8483 147.741 57.0217 146.484 57.195C145.271 57.4117 144.079 57.52 142.909 57.52ZM166.224 57.52C161.327 57.52 157.817 56.1767 155.694 53.49C153.57 50.8033 152.509 46.795 152.509 41.465V22.355C152.509 17.9783 153.765 14.6417 156.279 12.345C158.792 10.0483 162.302 8.9 166.809 8.9C175.952 8.9 180.524 13.385 180.524 22.355V25.8C180.524 29.2667 180.48 32.0833 180.394 34.25H163.884V43.48C163.884 45.1267 164.057 46.4267 164.404 47.38C164.75 48.29 165.487 48.745 166.614 48.745C167.48 48.745 168.087 48.485 168.434 47.965C168.824 47.445 169.04 46.86 169.084 46.21C169.17 45.5167 169.214 44.52 169.214 43.22V38.605H180.524V41.335C180.524 46.8817 179.44 50.9767 177.274 53.62C175.15 56.22 171.467 57.52 166.224 57.52ZM169.214 28.595V22.485C169.214 19.0617 168.369 17.35 166.679 17.35C164.772 17.35 163.819 19.0617 163.819 22.485V28.595H169.214ZM184.637 9.42H196.012V14.685C196.575 12.8217 197.55 11.3917 198.937 10.395C200.367 9.355 202.122 8.835 204.202 8.835V18.325C202.598 18.325 200.822 18.5633 198.872 19.04C196.965 19.4733 196.012 19.9933 196.012 20.6V57H184.637V9.42Z" fill="white"/>
</g>
<defs>
<filter id="filter0_d" x="0.659439" y="0.644989" width="207.542" height="64.875" filterUnits="userSpaceOnUse" color-interpolation-filters="sRGB">
<feFlood flood-opacity="0" result="BackgroundImageFix"/>
<feColorMatrix in="SourceAlpha" type="matrix" values="0 0 0 0 0 0 0 0 0 0 0 0 0 0 0 0 0 0 127 0"/>
<feOffset dy="4"/>
<feGaussianBlur stdDeviation="2"/>
<feColorMatrix type="matrix" values="0 0 0 0 0 0 0 0 0 0 0 0 0 0 0 0 0 0 0.25 0"/>
<feBlend mode="normal" in2="BackgroundImageFix" result="effect1_dropShadow"/>
<feBlend mode="normal" in="SourceGraphic" in2="effect1_dropShadow" result="shape"/>
</filter>
</defs>
</svg>
